<?xml version="1.0" standalone="no"?>
<!DOCTYPE svg PUBLIC "-//W3C//DTD SVG 20010904//EN"
 "http://www.w3.org/TR/2001/REC-SVG-20010904/DTD/svg10.dtd">
<svg version="1.0" xmlns="http://www.w3.org/2000/svg"
 width="640.000000pt" height="1280.000000pt" viewBox="0 0 640.000000 1280.000000"
 preserveAspectRatio="xMidYMid meet">
<metadata>
Created by potrace 1.15, written by Peter Selinger 2001-2017
</metadata>
<g transform="translate(0.000000,1280.000000) scale(0.100000,-0.100000)"
fill="#ffffff" stroke="none">
<path d="M1145 12793 c-34 -9 -86 -50 -113 -90 l-27 -38 -3 -2465 c-2 -2241
-1 -2469 14 -2507 21 -57 83 -109 146 -122 32 -7 344 -11 918 -11 l870 0 0
-1949 0 -1949 -120 -3 -120 -4 -32 -33 -33 -32 -3 -1736 c-1 -1201 1 -1748 8
-1775 8 -28 21 -46 43 -59 31 -19 54 -20 507 -20 453 0 476 1 507 20 22 13 35
31 43 59 7 27 9 573 8 1772 -3 1908 2 1763 -64 1794 -22 10 -65 15 -138 15
l-106 0 0 1950 0 1950 870 0 c574 0 886 4 918 11 63 13 125 65 146 122 15 38
16 266 14 2507 l-3 2465 -27 38 c-14 22 -43 51 -65 65 l-38 27 -2050 1 c-1127
1 -2059 0 -2070 -3z m745 -495 c0 -5 0 -816 0 -1803 l0 -1795 -130 0 -130 0 0
1805 0 1806 130 -3 c72 -2 130 -6 130 -10z m960 -1793 l0 -1805 -130 0 -130 0
0 1805 0 1805 130 0 130 0 0 -1805z m960 -10 l0 -1805 -130 0 -130 0 0 1805 0
1805 130 0 130 0 0 -1805z m960 0 l0 -1806 -132 3 c-73 2 -132 6 -130 11 1 4
2 815 2 1802 l0 1795 130 0 130 0 0 -1805z"/>
</g>
</svg>
